<svg
  width="256"
  height="256"
  viewBox="0 0 256 256"
  xmlns="http://www.w3.org/2000/svg"
>
  <title>HimmelCAD Build – Hoodie Ready</title>

  <g
    id="Cloud-Low-Poly"
    stroke="none"
    fill-rule="evenodd"
    transform="translate(18 45)"
  >
    <polygon fill="#123A8C" points="42 145 85 125 110 165 60 175"/>
    <polygon fill="#1A5BD7" points="110 165 85 125 165 125 145 170"/>
    <polygon fill="#0A2868" points="165 125 208 145 190 175 145 170"/>

    <polygon fill="#2F82F2" points="15 105 85 125 42 145"/>
    <polygon fill="#5EA6FF" points="85 125 128 75 165 125"/>
    <polygon fill="#2368D5" points="165 125 235 105 208 145"/>

    <polygon fill="#CFE6FF" points="50 55 85 125 15 105"/>
    <polygon fill="#83BCFF" points="50 55 95 65 85 125"/>

    <polygon fill="#EAF4FF" points="128 15 95 65 128 75 160 65"/>
    <polygon fill="#A9D1FF" points="95 65 85 125 128 75"/>

    <polygon fill="#C1DEFF" points="160 65 200 55 235 105 165 125"/>
    <polygon fill="#438FF1" points="128 75 165 125 160 65"/>
  </g>
</svg>
